<svg xmlns="http://www.w3.org/2000/svg" viewBox="0 0 1600 900" width="100%" height="100%">
  <!-- 页面背景 -->
  <rect width="1600" height="900" fill="#ffffff" />

  <!-- ========== 左列：本日日志 ========== -->
  <rect x="40" y="40" width="480" height="820" fill="#a8a8a8" />
  <!-- 标题标签 -->
  <rect x="210" y="55" width="140" height="50" fill="#e0e0e0" />
  <text x="280" y="90" text-anchor="middle" fill="#222222" font-size="24" font-family="Microsoft YaHei, sans-serif">本日日志</text>

  <!-- 日志条目列表（按时间倒序排列） -->
  <!-- 条目1 -->
  <rect x="60" y="130" width="440" height="60" fill="#c0c0c0" rx="4" />
  <text x="80" y="168" fill="#222222" font-size="18" font-family="Microsoft YaHei, sans-serif">16:17</text>
  <text x="180" y="168" text-anchor="middle" fill="#222222" font-size="18" font-family="Microsoft YaHei, sans-serif">视图03</text>
  <text x="260" y="168" fill="#222222" font-size="18" font-family="Microsoft YaHei, sans-serif">异常声音告警</text>
  <text x="440" y="168" text-anchor="end" fill="#e67e22" font-size="18" font-family="Microsoft YaHei, sans-serif" font-weight="bold">未处理</text>

  <!-- 条目2 -->
  <rect x="60" y="200" width="440" height="60" fill="#c0c0c0" rx="4" />
  <text x="80" y="238" fill="#222222" font-size="18" font-family="Microsoft YaHei, sans-serif">14:36</text>
  <text x="180" y="238" text-anchor="middle" fill="#222222" font-size="18" font-family="Microsoft YaHei, sans-serif">视图04</text>
  <text x="260" y="238" fill="#222222" font-size="18" font-family="Microsoft YaHei, sans-serif">跌倒行为检测</text>
  <text x="440" y="238" text-anchor="end" fill="#e67e22" font-size="18" font-family="Microsoft YaHei, sans-serif" font-weight="bold">未处理</text>

  <!-- 条目3 -->
  <rect x="60" y="270" width="440" height="60" fill="#c0c0c0" rx="4" />
  <text x="80" y="308" fill="#222222" font-size="18" font-family="Microsoft YaHei, sans-serif">11:08</text>
  <text x="180" y="308" text-anchor="middle" fill="#222222" font-size="18" font-family="Microsoft YaHei, sans-serif">视图02</text>
  <text x="260" y="308" fill="#222222" font-size="18" font-family="Microsoft YaHei, sans-serif">异常停留告警</text>
  <text x="440" y="308" text-anchor="end" fill="#2e9b3a" font-size="18" font-family="Microsoft YaHei, sans-serif" font-weight="bold">已处理</text>

  <!-- 条目4 -->
  <rect x="60" y="340" width="440" height="60" fill="#c0c0c0" rx="4" />
  <text x="80" y="378" fill="#222222" font-size="18" font-family="Microsoft YaHei, sans-serif">10:23</text>
  <text x="180" y="378" text-anchor="middle" fill="#222222" font-size="18" font-family="Microsoft YaHei, sans-serif">视图05</text>
  <text x="260" y="378" fill="#222222" font-size="18" font-family="Microsoft YaHei, sans-serif">抽烟行为检测</text>
  <text x="440" y="378" text-anchor="end" fill="#2e9b3a" font-size="18" font-family="Microsoft YaHei, sans-serif" font-weight="bold">已处理</text>

  <!-- 条目5 -->
  <rect x="60" y="410" width="440" height="60" fill="#c0c0c0" rx="4" />
  <text x="80" y="448" fill="#222222" font-size="18" font-family="Microsoft YaHei, sans-serif">09:45</text>
  <text x="180" y="448" text-anchor="middle" fill="#222222" font-size="18" font-family="Microsoft YaHei, sans-serif">视图01</text>
  <text x="260" y="448" fill="#222222" font-size="18" font-family="Microsoft YaHei, sans-serif">陌生人识别告警</text>
  <text x="440" y="448" text-anchor="end" fill="#e67e22" font-size="18" font-family="Microsoft YaHei, sans-serif" font-weight="bold">未处理</text>

  <!-- 条目6 -->
  <rect x="60" y="480" width="440" height="60" fill="#c0c0c0" rx="4" />
  <text x="80" y="518" fill="#222222" font-size="18" font-family="Microsoft YaHei, sans-serif">08:12</text>
  <text x="180" y="518" text-anchor="middle" fill="#222222" font-size="18" font-family="Microsoft YaHei, sans-serif">视图03</text>
  <text x="260" y="518" fill="#222222" font-size="18" font-family="Microsoft YaHei, sans-serif">危险区域闯入</text>
  <text x="440" y="518" text-anchor="end" fill="#2e9b3a" font-size="18" font-family="Microsoft YaHei, sans-serif" font-weight="bold">已处理</text>

  <!-- ========== 中列：日报 ========== -->
  <rect x="560" y="40" width="480" height="820" fill="#a8a8a8" />
  <rect x="730" y="55" width="140" height="50" fill="#e0e0e0" />
  <text x="800" y="90" text-anchor="middle" fill="#222222" font-size="24" font-family="Microsoft YaHei, sans-serif">日报</text>

  <!-- 日期列表 -->
  <rect x="620" y="130" width="360" height="55" fill="#c0c0c0" rx="4" />
  <text x="800" y="165" text-anchor="middle" fill="#222222" font-size="20" font-family="Microsoft YaHei, sans-serif">2026-07-09</text>

  <rect x="620" y="197" width="360" height="55" fill="#c0c0c0" rx="4" />
  <text x="800" y="232" text-anchor="middle" fill="#222222" font-size="20" font-family="Microsoft YaHei, sans-serif">2026-07-08</text>

  <rect x="620" y="264" width="360" height="55" fill="#c0c0c0" rx="4" />
  <text x="800" y="299" text-anchor="middle" fill="#222222" font-size="20" font-family="Microsoft YaHei, sans-serif">2026-07-07</text>

  <rect x="620" y="331" width="360" height="55" fill="#c0c0c0" rx="4" />
  <text x="800" y="366" text-anchor="middle" fill="#222222" font-size="20" font-family="Microsoft YaHei, sans-serif">2026-07-06</text>

  <rect x="620" y="398" width="360" height="55" fill="#c0c0c0" rx="4" />
  <text x="800" y="433" text-anchor="middle" fill="#222222" font-size="20" font-family="Microsoft YaHei, sans-serif">2026-07-05</text>

  <rect x="620" y="465" width="360" height="55" fill="#c0c0c0" rx="4" />
  <text x="800" y="500" text-anchor="middle" fill="#222222" font-size="20" font-family="Microsoft YaHei, sans-serif">2026-07-04</text>

  <!-- ========== 右列：周报 ========== -->
  <rect x="1080" y="40" width="480" height="820" fill="#a8a8a8" />
  <rect x="1250" y="55" width="140" height="50" fill="#e0e0e0" />
  <text x="1320" y="90" text-anchor="middle" fill="#222222" font-size="24" font-family="Microsoft YaHei, sans-serif">周报</text>

  <!-- 周列表 -->
  <rect x="1140" y="130" width="360" height="55" fill="#c0c0c0" rx="4" />
  <text x="1320" y="165" text-anchor="middle" fill="#222222" font-size="20" font-family="Microsoft YaHei, sans-serif">第27周（07.07-07.13）</text>

  <rect x="1140" y="197" width="360" height="55" fill="#c0c0c0" rx="4" />
  <text x="1320" y="232" text-anchor="middle" fill="#222222" font-size="20" font-family="Microsoft YaHei, sans-serif">第26周（06.30-07.06）</text>

  <rect x="1140" y="264" width="360" height="55" fill="#c0c0c0" rx="4" />
  <text x="1320" y="299" text-anchor="middle" fill="#222222" font-size="20" font-family="Microsoft YaHei, sans-serif">第25周（06.23-06.29）</text>

  <rect x="1140" y="331" width="360" height="55" fill="#c0c0c0" rx="4" />
  <text x="1320" y="366" text-anchor="middle" fill="#222222" font-size="20" font-family="Microsoft YaHei, sans-serif">第24周（06.16-06.22）</text>

  <rect x="1140" y="398" width="360" height="55" fill="#c0c0c0" rx="4" />
  <text x="1320" y="433" text-anchor="middle" fill="#222222" font-size="20" font-family="Microsoft YaHei, sans-serif">第23周（06.09-06.15）</text>

  <rect x="1140" y="465" width="360" height="55" fill="#c0c0c0" rx="4" />
  <text x="1320" y="500" text-anchor="middle" fill="#222222" font-size="20" font-family="Microsoft YaHei, sans-serif">第22周（06.02-06.08）</text>
</svg>