<svg xmlns="http://www.w3.org/2000/svg" viewBox="0 0 1600 900" width="100%" height="100%">
  <!-- 页面背景 -->
  <rect width="1600" height="900" fill="#ffffff" />

  <!-- ========== 整体外框（筛选+表格连通） ========== -->
  <rect x="50" y="40" width="1500" height="820" fill="#a8a8a8" stroke="#888888" stroke-width="2" />
  
  <!-- 表格标题 -->
  <text x="80" y="85" fill="#222222" font-size="26" font-family="Microsoft YaHei, sans-serif" font-weight="bold">
    日报详情 · 2026-07-08
  </text>

  <!-- ========== 表头行（带筛选下拉） ========== -->
  <rect x="70" y="110" width="1460" height="55" fill="#c8c8c8" stroke="#888888" stroke-width="1" />
  
  <!-- 列分隔线 -->
  <line x1="150" y1="110" x2="150" y2="165" stroke="#888888" stroke-width="1" />
  <line x1="410" y1="110" x2="410" y2="165" stroke="#888888" stroke-width="1" />
  <line x1="570" y1="110" x2="570" y2="165" stroke="#888888" stroke-width="1" />
  <line x1="870" y1="110" x2="870" y2="165" stroke="#888888" stroke-width="1" />
  <line x1="1030" y1="110" x2="1030" y2="165" stroke="#888888" stroke-width="1" />
  <line x1="1230" y1="110" x2="1230" y2="165" stroke="#888888" stroke-width="1" />

  <!-- 表头文字 + 筛选下拉箭头 -->
  <text x="110" y="145" text-anchor="middle" fill="#222222" font-size="20" font-family="Microsoft YaHei, sans-serif">序号</text>
  
  <text x="260" y="145" text-anchor="middle" fill="#222222" font-size="20" font-family="Microsoft YaHei, sans-serif">发生时间</text>
  <text x="390" y="148" text-anchor="end" fill="#555555" font-size="16">▼</text>
  
  <text x="490" y="145" text-anchor="middle" fill="#222222" font-size="20" font-family="Microsoft YaHei, sans-serif">所属视图</text>
  <text x="555" y="148" text-anchor="end" fill="#555555" font-size="16">▼</text>
  
  <text x="720" y="145" text-anchor="middle" fill="#222222" font-size="20" font-family="Microsoft YaHei, sans-serif">告警事件</text>
  <text x="855" y="148" text-anchor="end" fill="#555555" font-size="16">▼</text>
  
  <text x="950" y="145" text-anchor="middle" fill="#222222" font-size="20" font-family="Microsoft YaHei, sans-serif">告警级别</text>
  <text x="1015" y="148" text-anchor="end" fill="#555555" font-size="16">▼</text>
  
  <text x="1130" y="145" text-anchor="middle" fill="#222222" font-size="20" font-family="Microsoft YaHei, sans-serif">处理状态</text>
  <text x="1215" y="148" text-anchor="end" fill="#555555" font-size="16">▼</text>
  
  <text x="1350" y="145" text-anchor="middle" fill="#222222" font-size="20" font-family="Microsoft YaHei, sans-serif">操作</text>

  <!-- ========== 数据行（斑马纹） ========== -->
  <!-- 第1行 -->
  <rect x="70" y="165" width="1460" height="50" fill="#d8d8d8" stroke="#888888" stroke-width="1" />
  <line x1="150" y1="165" x2="150" y2="215" stroke="#888888" stroke-width="1" />
  <line x1="410" y1="165" x2="410" y2="215" stroke="#888888" stroke-width="1" />
  <line x1="570" y1="165" x2="570" y2="215" stroke="#888888" stroke-width="1" />
  <line x1="870" y1="165" x2="870" y2="215" stroke="#888888" stroke-width="1" />
  <line x1="1030" y1="165" x2="1030" y2="215" stroke="#888888" stroke-width="1" />
  <line x1="1230" y1="165" x2="1230" y2="215" stroke="#888888" stroke-width="1" />
  <text x="110" y="197" text-anchor="middle" fill="#222222" font-size="18" font-family="Microsoft YaHei, sans-serif">1</text>
  <text x="280" y="197" text-anchor="middle" fill="#222222" font-size="18" font-family="Microsoft YaHei, sans-serif">2026-07-08 16:17:23</text>
  <text x="490" y="197" text-anchor="middle" fill="#222222" font-size="18" font-family="Microsoft YaHei, sans-serif">视图03</text>
  <text x="720" y="197" text-anchor="middle" fill="#222222" font-size="18" font-family="Microsoft YaHei, sans-serif">异常声音告警</text>
  <text x="950" y="197" text-anchor="middle" fill="#e67e22" font-size="18" font-family="Microsoft YaHei, sans-serif">中危</text>
  <text x="1130" y="197" text-anchor="middle" fill="#2e9b3a" font-size="18" font-family="Microsoft YaHei, sans-serif">已处理</text>
  <text x="1350" y="197" text-anchor="middle" fill="#0066cc" font-size="18" font-family="Microsoft YaHei, sans-serif">查看详情</text>

  <!-- 第2行 -->
  <rect x="70" y="215" width="1460" height="50" fill="#e0e0e0" stroke="#888888" stroke-width="1" />
  <line x1="150" y1="215" x2="150" y2="265" stroke="#888888" stroke-width="1" />
  <line x1="410" y1="215" x2="410" y2="265" stroke="#888888" stroke-width="1" />
  <line x1="570" y1="215" x2="570" y2="265" stroke="#888888" stroke-width="1" />
  <line x1="870" y1="215" x2="870" y2="265" stroke="#888888" stroke-width="1" />
  <line x1="1030" y1="215" x2="1030" y2="265" stroke="#888888" stroke-width="1" />
  <line x1="1230" y1="215" x2="1230" y2="265" stroke="#888888" stroke-width="1" />
  <text x="110" y="247" text-anchor="middle" fill="#222222" font-size="18" font-family="Microsoft YaHei, sans-serif">2</text>
  <text x="280" y="247" text-anchor="middle" fill="#222222" font-size="18" font-family="Microsoft YaHei, sans-serif">2026-07-08 14:36:08</text>
  <text x="490" y="247" text-anchor="middle" fill="#222222" font-size="18" font-family="Microsoft YaHei, sans-serif">视图04</text>
  <text x="720" y="247" text-anchor="middle" fill="#222222" font-size="18" font-family="Microsoft YaHei, sans-serif">跌倒行为检测</text>
  <text x="950" y="247" text-anchor="middle" fill="#dc3545" font-size="18" font-family="Microsoft YaHei, sans-serif">高危</text>
  <text x="1130" y="247" text-anchor="middle" fill="#2e9b3a" font-size="18" font-family="Microsoft YaHei, sans-serif">已处理</text>
  <text x="1350" y="247" text-anchor="middle" fill="#0066cc" font-size="18" font-family="Microsoft YaHei, sans-serif">查看详情</text>

  <!-- 第3行 -->
  <rect x="70" y="265" width="1460" height="50" fill="#d8d8d8" stroke="#888888" stroke-width="1" />
  <line x1="150" y1="265" x2="150" y2="315" stroke="#888888" stroke-width="1" />
  <line x1="410" y1="265" x2="410" y2="315" stroke="#888888" stroke-width="1" />
  <line x1="570" y1="265" x2="570" y2="315" stroke="#888888" stroke-width="1" />
  <line x1="870" y1="265" x2="870" y2="315" stroke="#888888" stroke-width="1" />
  <line x1="1030" y1="265" x2="1030" y2="315" stroke="#888888" stroke-width="1" />
  <line x1="1230" y1="265" x2="1230" y2="315" stroke="#888888" stroke-width="1" />
  <text x="110" y="297" text-anchor="middle" fill="#222222" font-size="18" font-family="Microsoft YaHei, sans-serif">3</text>
  <text x="280" y="297" text-anchor="middle" fill="#222222" font-size="18" font-family="Microsoft YaHei, sans-serif">2026-07-08 11:08:41</text>
  <text x="490" y="297" text-anchor="middle" fill="#222222" font-size="18" font-family="Microsoft YaHei, sans-serif">视图02</text>
  <text x="720" y="297" text-anchor="middle" fill="#222222" font-size="18" font-family="Microsoft YaHei, sans-serif">异常停留告警</text>
  <text x="950" y="297" text-anchor="middle" fill="#ffc107" font-size="18" font-family="Microsoft YaHei, sans-serif">低危</text>
  <text x="1130" y="297" text-anchor="middle" fill="#6c757d" font-size="18" font-family="Microsoft YaHei, sans-serif">标记误报</text>
  <text x="1350" y="297" text-anchor="middle" fill="#0066cc" font-size="18" font-family="Microsoft YaHei, sans-serif">查看详情</text>

  <!-- 第4行 -->
  <rect x="70" y="315" width="1460" height="50" fill="#e0e0e0" stroke="#888888" stroke-width="1" />
  <line x1="150" y1="315" x2="150" y2="365" stroke="#888888" stroke-width="1" />
  <line x1="410" y1="315" x2="410" y2="365" stroke="#888888" stroke-width="1" />
  <line x1="570" y1="315" x2="570" y2="365" stroke="#888888" stroke-width="1" />
  <line x1="870" y1="315" x2="870" y2="365" stroke="#888888" stroke-width="1" />
  <line x1="1030" y1="315" x2="1030" y2="365" stroke="#888888" stroke-width="1" />
  <line x1="1230" y1="315" x2="1230" y2="365" stroke="#888888" stroke-width="1" />
  <text x="110" y="347" text-anchor="middle" fill="#222222" font-size="18" font-family="Microsoft YaHei, sans-serif">4</text>
  <text x="280" y="347" text-anchor="middle" fill="#222222" font-size="18" font-family="Microsoft YaHei, sans-serif">2026-07-08 10:23:15</text>
  <text x="490" y="347" text-anchor="middle" fill="#222222" font-size="18" font-family="Microsoft YaHei, sans-serif">视图05</text>
  <text x="720" y="347" text-anchor="middle" fill="#222222" font-size="18" font-family="Microsoft YaHei, sans-serif">抽烟行为检测</text>
  <text x="950" y="347" text-anchor="middle" fill="#e67e22" font-size="18" font-family="Microsoft YaHei, sans-serif">中危</text>
  <text x="1130" y="347" text-anchor="middle" fill="#2e9b3a" font-size="18" font-family="Microsoft YaHei, sans-serif">已处理</text>
  <text x="1350" y="347" text-anchor="middle" fill="#0066cc" font-size="18" font-family="Microsoft YaHei, sans-serif">查看详情</text>

  <!-- 第5行 -->
  <rect x="70" y="365" width="1460" height="50" fill="#d8d8d8" stroke="#888888" stroke-width="1" />
  <line x1="150" y1="365" x2="150" y2="415" stroke="#888888" stroke-width="1" />
  <line x1="410" y1="365" x2="410" y2="415" stroke="#888888" stroke-width="1" />
  <line x1="570" y1="365" x2="570" y2="415" stroke="#888888" stroke-width="1" />
  <line x1="870" y1="365" x2="870" y2="415" stroke="#888888" stroke-width="1" />
  <line x1="1030" y1="365" x2="1030" y2="415" stroke="#888888" stroke-width="1" />
  <line x1="1230" y1="365" x2="1230" y2="415" stroke="#888888" stroke-width="1" />
  <text x="110" y="397" text-anchor="middle" fill="#222222" font-size="18" font-family="Microsoft YaHei, sans-serif">5</text>
  <text x="280" y="397" text-anchor="middle" fill="#222222" font-size="18" font-family="Microsoft YaHei, sans-serif">2026-07-08 09:45:52</text>
  <text x="490" y="397" text-anchor="middle" fill="#222222" font-size="18" font-family="Microsoft YaHei, sans-serif">视图01</text>
  <text x="720" y="397" text-anchor="middle" fill="#222222" font-size="18" font-family="Microsoft YaHei, sans-serif">陌生人识别告警</text>
  <text x="950" y="397" text-anchor="middle" fill="#dc3545" font-size="18" font-family="Microsoft YaHei, sans-serif">高危</text>
  <text x="1130" y="397" text-anchor="middle" fill="#2e9b3a" font-size="18" font-family="Microsoft YaHei, sans-serif">已处理</text>
  <text x="1350" y="397" text-anchor="middle" fill="#0066cc" font-size="18" font-family="Microsoft YaHei, sans-serif">查看详情</text>

  <!-- 第6行 -->
  <rect x="70" y="415" width="1460" height="50" fill="#e0e0e0" stroke="#888888" stroke-width="1" />
  <line x1="150" y1="415" x2="150" y2="465" stroke="#888888" stroke-width="1" />
  <line x1="410" y1="415" x2="410" y2="465" stroke="#888888" stroke-width="1" />
  <line x1="570" y1="415" x2="570" y2="465" stroke="#888888" stroke-width="1" />
  <line x1="870" y1="415" x2="870" y2="465" stroke="#888888" stroke-width="1" />
  <line x1="1030" y1="415" x2="1030" y2="465" stroke="#888888" stroke-width="1" />
  <line x1="1230" y1="415" x2="1230" y2="465" stroke="#888888" stroke-width="1" />
  <text x="110" y="447" text-anchor="middle" fill="#222222" font-size="18" font-family="Microsoft YaHei, sans-serif">6</text>
  <text x="280" y="447" text-anchor="middle" fill="#222222" font-size="18" font-family="Microsoft YaHei, sans-serif">2026-07-08 08:12:37</text>
  <text x="490" y="447" text-anchor="middle" fill="#222222" font-size="18" font-family="Microsoft YaHei, sans-serif">视图03</text>
  <text x="720" y="447" text-anchor="middle" fill="#222222" font-size="18" font-family="Microsoft YaHei, sans-serif">危险区域闯入</text>
  <text x="950" y="447" text-anchor="middle" fill="#dc3545" font-size="18" font-family="Microsoft YaHei, sans-serif">高危</text>
  <text x="1130" y="447" text-anchor="middle" fill="#6c757d" font-size="18" font-family="Microsoft YaHei, sans-serif">标记误报</text>
  <text x="1350" y="447" text-anchor="middle" fill="#0066cc" font-size="18" font-family="Microsoft YaHei, sans-serif">查看详情</text>

  <!-- 第7行 -->
  <rect x="70" y="465" width="1460" height="50" fill="#d8d8d8" stroke="#888888" stroke-width="1" />
  <line x1="150" y1="465" x2="150" y2="515" stroke="#888888" stroke-width="1" />
  <line x1="410" y1="465" x2="410" y2="515" stroke="#888888" stroke-width="1" />
  <line x1="570" y1="465" x2="570" y2="515" stroke="#888888" stroke-width="1" />
  <line x1="870" y1="465" x2="870" y2="515" stroke="#888888" stroke-width="1" />
  <line x1="1030" y1="465" x2="1030" y2="515" stroke="#888888" stroke-width="1" />
  <line x1="1230" y1="465" x2="1230" y2="515" stroke="#888888" stroke-width="1" />
  <text x="110" y="497" text-anchor="middle" fill="#222222" font-size="18" font-family="Microsoft YaHei, sans-serif">7</text>
  <text x="280" y="497" text-anchor="middle" fill="#222222" font-size="18" font-family="Microsoft YaHei, sans-serif">2026-07-08 07:50:19</text>
  <text x="490" y="497" text-anchor="middle" fill="#222222" font-size="18" font-family="Microsoft YaHei, sans-serif">视图06</text>
  <text x="720" y="497" text-anchor="middle" fill="#222222" font-size="18" font-family="Microsoft YaHei, sans-serif">打架行为检测</text>
  <text x="950" y="497" text-anchor="middle" fill="#dc3545" font-size="18" font-family="Microsoft YaHei, sans-serif">高危</text>
  <text x="1130" y="497" text-anchor="middle" fill="#2e9b3a" font-size="18" font-family="Microsoft YaHei, sans-serif">已处理</text>
  <text x="1350" y="497" text-anchor="middle" fill="#0066cc" font-size="18" font-family="Microsoft YaHei, sans-serif">查看详情</text>
</svg>